<?xml version="1.0" encoding="utf-8"?>
<!-- Generator: Adobe Illustrator 27.1.1, SVG Export Plug-In . SVG Version: 6.00 Build 0)  -->
<svg version="1.1" id="Capa_1" xmlns="http://www.w3.org/2000/svg" xmlns:xlink="http://www.w3.org/1999/xlink" x="0px" y="0px"
	 viewBox="0 0 425.2 425.2" style="enable-background:new 0 0 425.2 425.2;" xml:space="preserve">
<style type="text/css">
	.st0{fill:#B9D2E8;}
	.st1{fill:#9078B7;}
	.st2{fill:#E8E1F0;}
	.st3{fill:#FFD145;}
	.st4{fill:#FFE5C7;}
	.st5{fill:#FEE7DC;}
	.st6{fill:#5BB1E3;}
	.st7{fill:#C4D5EE;}
	.st8{fill:#EF5695;}
	.st9{fill:#F8C1D9;}
	.st10{fill:#155AA9;}
	.st11{fill:#9BCBE2;}
	.st12{fill:#183C7E;}
	.st13{fill:#F7A292;}
	.st14{fill:#E3A93E;}
	.st15{fill:#8F7AB8;}
	.st16{fill:#9E8AC1;}
	.st17{fill:#6F6EB3;}
	.st18{fill:#CCB7D9;}
	.st19{clip-path:url(#SVGID_00000076586971766436820170000015967814140432964538_);}
	.st20{fill:#67B0CE;}
	.st21{fill:#ABC4E7;}
	.st22{fill:#164488;}
	.st23{fill:none;stroke:#FEE7DC;stroke-width:0.8736;stroke-linecap:round;stroke-linejoin:round;stroke-miterlimit:10;}
	.st24{fill:#EBDAC6;}
	.st25{fill:#B6E4FA;}
	.st26{fill:#F9C5DC;}
	.st27{fill:#D2ACD1;}
	.st28{fill:#249FDA;}
	.st29{fill:#DEDFE0;}
	.st30{fill:#FDE1D3;}
	.st31{fill:#FCCFC6;}
	.st32{fill:#6B9DC1;}
	.st33{fill:#D0E1EB;}
	.st34{fill:#B3D7E9;}
	.st35{fill:#D1BED4;}
	.st36{fill:#FDDAC6;}
	.st37{fill:#FEEDE3;}
	.st38{fill:#D3CDDE;}
	.st39{fill:#ABDFF9;}
</style>
<g>
	<ellipse class="st0" cx="206.9" cy="366.6" rx="176.9" ry="19.7"/>
	<g>
		<g>
			<g>
				<g>
					<rect x="205.6" y="240.9" class="st1" width="139.4" height="35"/>
					<path class="st2" d="M328.5,240.9c1.1,4.5,2.1,9.1,2.4,13.7c0.3,3.8,0.4,8.5-1.7,11.9c-2.6,4.2-7.7,3.7-12.1,4
						c-7,0.4-70.7-0.1-111.5-0.6v6h139.4v-35H328.5z"/>
				</g>
				<g>
					<rect x="217.8" y="252.8" class="st3" width="105.3" height="11.1"/>
					<path class="st4" d="M315.1,252.8c0.1,1.3,0.1,2.7-0.3,4c-0.7,2.9-3.6,4.2-5.9,4.4c-4.4,0.4-8.9-0.2-13.2-0.2
						c-5.3,0-10.5,0-15.8-0.1c-20.7-0.1-41.4-0.4-62.1-0.4v3.3h105.3v-11.1H315.1z"/>
				</g>
				<rect x="129.1" y="240.9" class="st1" width="77.1" height="35"/>
				<rect x="129.1" y="244.6" class="st5" width="72.5" height="27.6"/>
				<path class="st2" d="M198,240.9c0.3,6.5,0.5,13-0.4,19.5c-0.3,2.2-0.5,6.2-2.9,7.4c-2.7,1.4-46.7,0.2-65.5,0.2v7.9h77.1v-35H198
					z"/>
			</g>
			<g>
				<g>
					<rect x="242.2" y="275.9" class="st6" width="123.2" height="35"/>
					<path class="st7" d="M349,275.9c1.1,4.5,2.1,9.1,2.4,13.7c0.3,3.8,0.4,8.5-1.7,11.9c-2.6,4.2-7.7,3.7-12.1,4
						c-6.1,0.3-55.7,0-95.3-0.4v5.8h123.2v-35H349z"/>
				</g>
				<g>
					<g>
						<rect x="258.7" y="281.8" class="st3" width="6.9" height="23"/>
						<path class="st4" d="M264.6,281.8c0,3.4,0.2,15.2-0.3,17.4c-0.7,2.9-3.1,3.1-5.6,2.9v2.8h6.9v-23H264.6z"/>
					</g>
					<g>
						<rect x="269.2" y="281.8" class="st3" width="6.9" height="23"/>
						<path class="st4" d="M275.1,281.8c0,3.4,0.2,15.2-0.3,17.4c-0.7,2.9-3.1,3.1-5.6,2.9v2.8h6.9v-23H275.1z"/>
					</g>
					<g>
						<rect x="279.8" y="281.8" class="st3" width="6.9" height="23"/>
						<path class="st4" d="M285.7,281.8c0,3.4,0.2,15.2-0.3,17.4c-0.7,2.9-3.1,3.1-5.6,2.9v2.8h6.9v-23H285.7z"/>
					</g>
				</g>
				<rect x="153.6" y="275.9" class="st6" width="90.6" height="35"/>
				<rect x="153.6" y="279.6" class="st5" width="86" height="27.6"/>
				<path class="st7" d="M235.9,275.9c0.3,6.5,0.5,13-0.4,19.5c-0.3,2.2-0.8,5.7-5.3,7.7c-2.8,1.2-57.8-0.1-76.6-0.2v7.9h90.6v-35
					H235.9z"/>
			</g>
			<g>
				<g>
					<rect x="212.8" y="310.3" class="st8" width="139.4" height="35"/>
					<path class="st9" d="M335.7,310.3c1.1,4.5,2.1,9.1,2.4,13.7c0.3,3.8,0.4,8.5-1.7,11.9c-2.6,4.2-7.7,3.7-12.1,4
						c-7,0.4-70.7-0.1-111.5-0.6v6h139.4v-35H335.7z"/>
				</g>
				<rect x="136.3" y="310.3" class="st8" width="77.1" height="35"/>
				<rect x="136.3" y="314" class="st5" width="72.5" height="27.6"/>
				<path class="st9" d="M205.1,310.3c0.3,6.5,0.5,13-0.4,19.5c-0.3,2.2-0.5,6.2-2.9,7.4c-2.7,1.4-46.7,0.2-65.5,0.2v7.9h77.1v-35
					H205.1z"/>
				<g>
					<rect x="238.8" y="322.6" class="st3" width="86.6" height="9.4"/>
					<path class="st4" d="M318.8,322.6c0.1,1.1,0.1,2.3-0.2,3.4c-0.6,2.5-3,3.5-4.9,3.7c-3.6,0.4-7.3-0.2-10.9-0.2
						c-4.3,0-8.7,0-13-0.1c-17-0.1-34-0.3-51-0.3v2.8h86.6v-9.4H318.8z"/>
				</g>
				<g>
					<rect x="222.1" y="317.4" class="st3" width="6.3" height="20.8"/>
					<path class="st4" d="M227.4,317.4c0,3.1,0.2,13.7-0.3,15.7c-0.6,2.6-2.8,2.8-5,2.6v2.5h6.3v-20.8H227.4z"/>
				</g>
				<g>
					<rect x="333.7" y="317.4" class="st3" width="6.3" height="20.8"/>
					<path class="st4" d="M339.1,317.4c0,3.1,0.2,13.7-0.3,15.7c-0.6,2.6-2.8,2.8-5,2.6v2.5h6.3v-20.8H339.1z"/>
				</g>
			</g>
		</g>
		<g>
			<g>
				<rect x="71.2" y="273" class="st6" width="135.7" height="27.7"/>
				<rect x="71.2" y="278" class="st5" width="127.6" height="17.7"/>
				<path class="st7" d="M190.4,273c0.5,2.3,1.1,4.6,1.4,6.8c0.4,3,0.6,6.4-0.7,9.2c-1.4,2.9-4.2,4-7.3,4c-2.7,0.1-5.3-0.3-8-0.3
					c-2.9,0-5.9,0-8.8,0c-6.5,0-13.1-0.1-19.6-0.2c-25.4-0.1-50.8,0-76.1,0v8.1h135.7V273H190.4z"/>
			</g>
			<g>
				<rect x="79.3" y="299.3" class="st8" width="135.7" height="27.7"/>
				<rect x="79.3" y="304.3" class="st5" width="127.6" height="17.7"/>
				<path class="st9" d="M198.5,299.3c0.5,2.3,1.1,4.6,1.4,6.8c0.4,3,0.6,6.4-0.7,9.2c-1.4,2.9-4.2,4-7.3,4c-2.7,0.1-5.3-0.3-8-0.3
					c-2.9,0-5.9,0-8.8,0c-6.5,0-13.1-0.1-19.6-0.2c-25.4-0.1-50.8,0-76.1,0v8.1H215v-27.7H198.5z"/>
			</g>
			<g>
				<rect x="91.2" y="327" class="st10" width="135.7" height="27.7"/>
				<rect x="91.2" y="332" class="st5" width="127.6" height="17.7"/>
				<path class="st11" d="M210.4,327c0.5,2.3,1.1,4.6,1.4,6.8c0.4,3,0.6,6.4-0.7,9.2c-1.4,2.9-4.2,4-7.3,4c-2.7,0.1-5.3-0.3-8-0.3
					c-2.9,0-5.9,0-8.8,0c-6.5,0-13.1-0.1-19.6-0.2c-25.4-0.1-50.8,0-76.1,0v8.1h135.7V327H210.4z"/>
			</g>
		</g>
		<g>
			<g>
				<g>
					<g>
						<g>
							<path class="st12" d="M80.2,369h-7.5v5.2c0,0,17.6,1.6,18,0C91.4,371.4,80.2,369,80.2,369z"/>
						</g>
					</g>
				</g>
			</g>
			<g>
				<g>
					<g>
						<g>
							<path class="st12" d="M64.8,368.8h-7.5v5.2c0,0,16.2,1.3,16.7-0.7C74.9,370.5,64.8,368.8,64.8,368.8z"/>
						</g>
					</g>
				</g>
			</g>
			<path class="st10" d="M81.1,280.3H64.8c0,0,9.7,32.6,10.7,43.8c1,11.3-3.1,45.3-3.1,45.3h11.2c0,0,4.1-39.2,4.3-45.5
				C88.2,312.9,81.1,280.3,81.1,280.3z"/>
			<path class="st10" d="M78.9,280.3H54.6l2,88.9l10.7,0c1-16.2,3.2-76.6,3.2-76.6L78.9,280.3z"/>
			<path class="st13" d="M94.2,277.8c1,1.4,3.7,2.1,4.8,1.1c1.1-1.1-1.3-2.9,0.2-3.5c1.7-0.6-1.3-3.8-2.9-4.8l-3.3,1.8
				C92.9,272.3,91.8,274.3,94.2,277.8z"/>
			<polygon class="st13" points="83.2,256.4 88.5,255.1 77.5,233 75,227.7 69.2,232.6 			"/>
			<path class="st14" d="M84.1,244.5L77.5,233l-2.5-5.3l-5.8,4.9l9.5,17.3C80.3,248.3,82.6,246.1,84.1,244.5z"/>
			<polygon class="st13" points="83.1,256.4 87.3,252.6 96.4,270.7 92.9,272.5 			"/>
			<path class="st3" d="M73.3,225.5c-2.9-0.7-9.6-0.4-12.6-0.1c-2.8,0.2-5.6,2.4-6.9,3.9c-0.2,0.2-0.7,0.9-0.7,0.9l1.4,50.6h26.9
				c-0.2-5.9-5-48.9-5-48.9S75.1,225.9,73.3,225.5z"/>
			<path class="st13" d="M65,219.9l-1.4,5.4c0,0,2.6,4.6,6.3,4.6c2.3,0,1.6-4.6,1.6-4.6l-0.5-5.4H65z"/>
			<path class="st13" d="M68.4,200.9c5,0,7.6,2.3,8,10.4c0.3,7.3,0.7,9.5-6.1,9.5c0,0-4.4-0.1-4.4-0.2c-2.4-0.9-5.2-2.8-5.2-9.8
				C60.6,203,63.1,200.9,68.4,200.9z"/>
			<polygon class="st13" points="53.9,243.8 53.1,230 43,246.7 45.1,254.7 			"/>
			<path class="st14" d="M51.7,247.7l2.6-4.4c0,0,7.5-10.9,5.6-13.6c-3-4.2-6.8,0.3-6.8,0.3L45,241.4L51.7,247.7z"/>
			<path class="st13" d="M58.4,276.2c1,1.3,3.8,1.6,4.7,0.5c0.9-1.2-1.6-2.6-0.2-3.3c1.5-0.8-1.6-3.5-3.4-4.3l-2.8,2.2
				C56.7,271.3,56,273.2,58.4,276.2z"/>
			<path class="st10" d="M61,203.2c-4,4.7-1,13.2-0.6,14c0.9,2,2.8,1.9,2.8,1.9c-0.3-0.8-1.4-6.9-0.9-7c0.5-0.1,2.2,2,1.8-1.9
				c-0.4-4,9.2-3.9,11.6-3.9c1.4,0,2.2-3.5,0.8-3.3c-1.1,0.2-1.7-0.5-2.1-0.7C71.1,200.2,64.1,199.6,61,203.2z"/>
			<path class="st13" d="M41,252c0-2,2-5.4,2-5.4l16.4,22.5l-2.8,2.2C56.7,271.3,41,257.4,41,252z"/>
			<path class="st13" d="M63.8,212.6c0.2,0.7-0.1,1.4-0.6,1.6c-0.5,0.1-1.1-0.4-1.3-1.1c-0.2-0.7,0.1-1.4,0.6-1.6
				C63.1,211.4,63.7,211.8,63.8,212.6z"/>
		</g>
		<g>
			<g>
				<g>
					<g>
						<g>
							<path class="st12" d="M336.8,368h7.5v5.2c0,0-17.7,2-18,0.4C325.6,370.7,336.8,368,336.8,368z"/>
						</g>
					</g>
				</g>
			</g>
			<g>
				<g>
					<g>
						<g>
							<path class="st12" d="M356.8,368.1l8.2-3.6l2.3,5.2c0,0-4.2,2.3-8.7,4.3c-3.6,1.6-6.6,1-6.7-0.3c-0.1-1.6,1.8-2.2,3.7-3.7
								C356.8,369.1,356.8,368.1,356.8,368.1z"/>
						</g>
					</g>
				</g>
			</g>
			<g>
				<path class="st13" d="M315.1,289.4c-1.3,1.1-4.1,1-4.8-0.3c-0.7-1.3,1.4-2.6,1.1-3.2c-0.3-0.6,1.7-3.4,3.8-3.9l2.6,2.6
					C317.8,284.6,318.3,286.8,315.1,289.4z"/>
				<polygon class="st13" points="317.7,284.7 314.7,282.5 330.5,264 338.9,235.4 346.5,239.1 336.1,266.3 				"/>
				<path class="st15" d="M344.7,246l3.5-9.9c0.9-2.6-0.4-5.5-3.1-6.5c-2.6-0.9-5.5,0.4-6.5,3.1l-3.5,9.9L344.7,246z"/>
			</g>
			<path class="st10" d="M355.7,204.8c0,0,0.3-6.4,6.4-6.2c6.2,0.3,7.2,7.1,5.8,12.8c-1.4,5.7,0.4,7.4,2,10.4
				c1.6,3-2.7,6.9-3.5,11.5c-0.2,1.3-1.6,4.5,1.4,9.7c0,0-8.6-2.7-8.3-8.3c0.2-3.6,0.4-5.7-0.7-7.6c-1.1-1.9-2.1-3.4-0.8-6.1
				c1.3-2.7-0.8-6.1,2.1-10c1.9-2.6,0-5.8-0.8-5.8c-1.1,0-1.9,0.9-1.9,0.9L355.7,204.8z"/>
			<path class="st6" d="M355.9,202.4c0,0,1.1-0.4,2.2,1.1c1.2,1.7,0.4,2.3,0.4,2.3S356.6,205.1,355.9,202.4z"/>
			<g>
				<g>
					<path class="st10" d="M331.4,282.3l3.9,86.1l9.4,0c0,0,5.8-83.6,6-86.1H331.4z"/>
				</g>
			</g>
			<path class="st16" d="M354.6,282.3c-0.5-2.6-0.8-32.7-0.8-46.2c0-3.6-1.9-9.2-4.6-9.6l-6.7-0.3c-2.4,0-5,3.8-5.7,10.7
				c-0.7,7.4-5,41.8-5.4,45.5H354.6z"/>
			<path class="st13" d="M348.7,219.8l-0.3,7.4c-0.6,0.6-1.6,1.3-3.1,1.3c-2.5,0-3.5-1.5-3.7-1.9l0.3-7.1L348.7,219.8z"/>
			<path class="st13" d="M357.6,205.7c-3-4.4-8.3-5.4-12.5-4.3c-3.1,0.8-4.7,3.2-5.4,4.4c-0.1,0-0.2,0-0.2,0
				c-0.1,0.2-0.1,0.5-0.2,0.8l0,0l0,0c-0.2,1.2-0.2,2.8-0.3,3.2c-0.2,0.6-2.4,7.5-0.2,11c1.1,1.7,5.5,1,8.3,0.6
				C355.6,220.3,360.6,210.2,357.6,205.7z"/>
			<path class="st10" d="M351.6,200.8c-5.8-1.2-8.9,0.8-11.1,2.5c-1,0.8-1.6,2.1-1.3,2.7v0c0,0,0,0.6,1.4,1.1
				c4.3,1.4,6.3,7.4,7.1,7.4c1.1,0.1,1.5-1.5,2.3-0.8c0.6,0.4-0.1,1.6-1,2.2c-1.3,1-1.9,5.5-1.1,5.4c4.1,0.1,5.3-1.2,7.8-4
				C362.3,209.9,359.2,202.4,351.6,200.8z"/>
			<g>
				<path class="st13" d="M325,293.9c-1.1,1.3-3.9,1.7-4.8,0.5c-0.9-1.2,1-2.8,0.6-3.3c-0.4-0.6,1.2-3.6,3.1-4.5l3,2.1
					C326.9,288.7,327.8,290.8,325,293.9z"/>
				<polygon class="st13" points="326.8,288.8 323.5,287.2 336.1,266.3 339.7,236.8 347.9,239.3 342,267.7 				"/>
				<path class="st15" d="M347.2,246.3l1.9-10.4c0.5-2.7-1.3-5.4-4.1-5.9c-2.7-0.5-5.4,1.3-5.9,4.1l-1.9,10.4L347.2,246.3z"/>
			</g>
			<path class="st10" d="M353,326.5l-0.1-0.1L353,326.5c0-0.1,1.8-43.4,1.6-44.2h-23.2l5.4,14.3l4.3,30.3l14.9,41.9l9.7-4.1
				L353,326.5z"/>
			<path class="st13" d="M350.1,215.4c-0.5,0.7-1.3,1.1-1.8,0.7c-0.5-0.3-0.6-1.2-0.1-1.9c0.5-0.7,1.3-1.1,1.8-0.7
				C350.5,213.8,350.5,214.7,350.1,215.4z"/>
		</g>
		<g>
			<g>
				<g>
					
						<rect x="237.4" y="78.5" transform="matrix(0.9225 -0.3859 0.3859 0.9225 -37.3771 104.1466)" class="st17" width="6.6" height="133.2"/>
				</g>
			</g>
			<polygon class="st17" points="251.2,237.4 233.8,237.4 236.9,211.1 248.4,211.1 			"/>
			<path class="st18" d="M248.4,211.1h-3.2c0,4.9,0.2,9.9-1.5,14.6c-1.6,4.4-5.2,5-9,5l-0.8,6.7h17.4L248.4,211.1z"/>
			<g>
				<path class="st10" d="M242.5,214.4c-38.6,0-69.9-31.4-69.9-69.9c0-15.2,4.8-29.7,13.9-41.9c8.8-11.8,21.3-20.6,35.3-24.9l2,6.3
					c-26.6,8.3-44.5,32.6-44.5,60.5c0,34.9,28.4,63.3,63.3,63.3c10.3,0,20.4-2.5,29.4-7.2l3.1,5.9
					C265.1,211.6,253.8,214.4,242.5,214.4z"/>
			</g>
			<g>
				<defs>
					<path id="SVGID_1_" d="M298.9,144.4c0,31.1-25.2,56.4-56.4,56.4c-31.1,0-56.4-25.2-56.4-56.4c0-31.1,25.2-56.4,56.4-56.4
						C273.6,88.1,298.9,113.3,298.9,144.4z"/>
				</defs>
				<use xlink:href="#SVGID_1_"  style="overflow:visible;fill:#5BB1E3;"/>
				<clipPath id="SVGID_00000179619112470055296000000003880054936347198898_">
					<use xlink:href="#SVGID_1_"  style="overflow:visible;"/>
				</clipPath>
				<g style="clip-path:url(#SVGID_00000179619112470055296000000003880054936347198898_);">
					<path class="st5" d="M173.8,123.3l1,0.4l1.1-0.3l0.5,0.4l0.9-1.1l2.3-0.4l1.1,0.2c0,0,1.1,0.1,1.4,0.2c0.3,0.1,2.2,0.7,2.6,1.8
						c0.4,1.1,1.2,2.1,1.2,2.1s1.9,2.7,3.5,3.7c1.6,1,0,3.1,0.8,5.8c0.8,2.7,1.4,3,1.4,3l1,0.4l0.8,1.1l0.5,1.4l0.6,0.7l-0.9,0.3
						l0.8,0.6l0.7,0.7l0.7,1l0.7,0.6l-0.9-2.5l-1.3-2.4l0.4-0.2c0,0,0.8,0.1,1.6,1.5c0.8,1.4,1,2.2,1,2.2l1,1.3c0,0,0.4,1.1,0,1.6
						c-0.4,0.5,3.7,2.4,4.2,2.4c0.5,0,1.3-0.4,1.8,0.4c0.4,0.8,1.2,0.8,2.2,1.1c1,0.3,1.1,1.1,0.8,1.8c-0.3,0.6,1.7,0.5,2.1,1.2
						c0.4,0.7,0.5-1.1,1.1-0.4c0.6,0.6,0.8,1.5,0.2,2.5c-0.6,1-1.1,2-1.1,2.8c0.1,0.8,0.2,1.2-0.2,2.5c-0.4,1.2,1.7,1.2,2,4.2
						c0.4,3,3.3,0.2,2.9,5.2c-0.4,5-0.7,2.7-0.6,5.5l-1.1,2.8l0.1,1.4l-0.4,1.1l-0.3,1.2v1l-0.4,1.8v1.8v0.8c0,0,1.6,3.3,4.7,2.4
						c0,0-0.7-0.8-1.2-1.8c0,0-0.9-1.6,0-1.5c0.9,0.1,0.1-1.4,1-1.7c0.9-0.3-1.3-0.8,0.1-2.1c1.4-1.3-0.4-1.4,0.5-2.2
						c1-0.8,1.2-1.5,2.5-1.4c1.2,0.1,1.5-0.9,1.5-1.8c0-1,1.6-0.4,2.1-3c0.5-2.6,2.8-4.8,4-4.4c1.2,0.4,1.7-4,1.7-5.3
						c0-1.2,3.2-3,0.6-4.8c-2.6-1.8-1.6-0.7-3-1.1c-1.4-0.4-1.5-0.4-2.2-1.6c-0.7-1.2-0.7-2.6-1.8-2.7c-1.1-0.2-3.5-1.7-4.2-2.9
						l-1.4,0.1l-1-0.4l-1,0.4l-0.2-0.9l-0.4,0.1v0.8l-0.1,0.8l-0.5-0.4l0.1-0.9l0.2-0.6l-1.1,0.4l-0.4,0.8l-0.8,0.6h-0.8l-1-0.3
						c0,0-1.4,0.2-1.4-1.5c0-1.7,0-1.9-2.2-1.8c0,0,0.2-2.4,0.8-3c0.6-0.6-1.4-0.5-1.7,0.3c0,0-0.4,1.7-2,1.4c0,0-2-1.8-1-4.4
						c1.1-2.6,1.3-2.1,2.7-1.8c1.4,0.3,0.4-0.9,1.7-0.7c1.2,0.2,1.1,0.2,1.5,0.8c0.4,0.6,1,1.8,0.6,2.4c-0.4,0.5,1.9,0.7,0.9-2.6
						c-1.1-3.3,1.8-3.1,2.4-3c0.6,0.1-1.3-3.3,0.9-3.7c2.2-0.4,1.7-0.5,1.7-0.5s-0.4-1.7,1.8-1.7l0.4,0.4l1.1-0.6l1-0.9l0.3-0.8
						l1.2-0.1l0.6,0.5l1.2-0.2l-0.4-1.5c0,0-1.1-0.2-1.3-0.9c-0.2-0.7,1.2-0.4,0.4-1.7c-0.8-1.2-1.1-1.7-2.3-2.3
						c-1.1-0.6-1.1-2.3-2-3.2c-1-0.9-0.7,2.3-1.7,1.3c-1-1-1.5-2.7-4.1-2.5c0,0,0.7,1.8-0.3,2.5c0,0,2.3,2-0.4,2.8
						c0,0,1.3,1.8-0.2,2.1c-1.5,0.3-1-1.8-1.1-2.5c0,0-2.3-0.2-2.8-0.8c-0.5-0.6-1.8-0.4-1.8-0.4l-0.4-1.1l-0.6-0.4
						c0,0,0.2-1.7,0.5-1.7c0.4,0,1.6-1,1.6-1l0.6-1.1l0.7-0.9v-0.9l0.8,0.7l0.7,0.4l0.7-1.6l0.2-1.1l-1.6-0.1l-2.9,0.8l-1.4-0.9
						l-1,0.5l-2,0.1h-1.7l-1.2-0.4l-0.3,0.6l-1,0.5l-1.2-0.4h-1l0.1-0.5l-0.7-0.5l-0.7-0.3l-0.8-0.2l-0.9-0.4l-0.7,0.3
						c0,0-1.2,0.4-1.9-1.1c0,0-3.7,1.3-4.4,1.2c-0.7-0.1-8.2-0.9-8.7-1.8c-0.5-0.9-1.2,0.2-2.1,0.9c-0.9,0.7-1.1,1.4-2.1,1.5
						c-1.1,0.1,2,1.2,2.6,1.8c0.5,0.5-3-0.7-3.1,0.4c-0.1,1.1,1.9,1,3.2,1.1c1.2,0.2-0.5,0.8-1.4,0.7c-0.9-0.1-0.8,1.7-0.8,1.7
						l0.8,0.9L173.8,123.3z"/>
					<path class="st5" d="M198.8,113.8l0.6,0.3h0.6l0.2,0.4l0.2,0.2l0,0.5l-0.7-0.2l-0.3,0.5l-1.3,0.1l-0.4-0.2l-0.6,0.2l-0.7,0.2
						l-1.1,0.1l-0.7-0.4l-0.3-0.1l-1-0.3l-0.5-0.4c0,0,1.5-0.3,2.1-0.2c0.5,0.1-0.1-0.6-2.2-0.4l0.6-0.4l-0.7-0.4l0-0.4l0.4-0.5
						l1-0.1l0.4-0.3l0.2,0.4h0.7l0.6,0.4l0.2-0.2l0.5-0.1l0.3,0.4l0.4,0.4v-1v-0.2h0.5l0.1-0.4l1,0.1l0,0.5l-0.1,0.4l-0.4,0.1
						l0.2,0.4L198.8,113.8z"/>
					<path class="st5" d="M191.1,110.9c0,0,1,0.4,1.6,0.2c0.6-0.2,1.6,0.6,1.2,0.7c-0.4,0.1-1.5,0.2-1.8,0.7
						c-0.3,0.6-0.5,0.3-0.5,0.3l0,0.4l-0.5,0.2l-0.5,0.3l-0.6-0.5l-1-0.2l0.6-0.8l0.3-0.3l0.2-0.5l-0.5-0.4L191.1,110.9z"/>
					<path class="st5" d="M200.5,112v0.4H200l-0.3-0.2c0,0-0.4,0.4,0.4,0.7c0.8,0.3,0.6,0.3,0.9,0.6c0.2,0.2,0.3,0.6,0.6,0.3
						c0.3-0.2,0.4-0.4,0.8-0.4c0.4,0,0.4-0.5,0.1-0.8c-0.2-0.2-0.6-0.6-0.4-0.8c0.1-0.2-0.1-0.9-0.4-0.6c-0.3,0.2-0.7,0.4-1,0.2
						c-0.3-0.2-0.6,0.1-0.6,0.4C200.1,112,200.5,112,200.5,112z"/>
					<path class="st5" d="M202.1,107v0.4h-0.5l-0.3-0.2c0,0-0.4,0.4,0.4,0.7c0.8,0.3,0.6,0.3,0.9,0.6c0.2,0.2,0.3,0.6,0.6,0.3
						c0.3-0.2,0.4-0.4,0.8-0.4c0.4,0,0.4-0.5,0.1-0.8c-0.2-0.2-0.6-0.6-0.4-0.8c0.1-0.2-0.1-0.9-0.4-0.6c-0.3,0.2-0.7,0.4-1,0.2
						c-0.3-0.2-0.6,0.1-0.6,0.4C201.7,107.1,202.1,107,202.1,107z"/>
					<path class="st5" d="M204.2,114.8c0,0,0.5-0.2,0.4-0.4c-0.1-0.2-0.3-0.5-0.3-0.5l-0.3-0.3l-0.2-0.5h-0.4l0.3-0.6
						c0,0,0.2-0.4,0.3-0.4c0.1,0.1,0.6,0,0.6,0l0.3-0.6l0.5-0.4c0,0-1.6-0.4-2.1-0.1c-0.5,0.2-0.6,0.4-0.5,0.8
						c0.1,0.4,0.3,0.7,0.3,0.7l-0.2,0.6l-0.4,0.2l-0.4,0.2l0.2,0.5l-0.2,0.3l0.5,0.3l0.7,0.1l0.1,0.3l0.4-0.3L204.2,114.8z"/>
					<path class="st5" d="M199.8,108.9l0.6,0.3h0.6l0.2,0.4l0.2,0.2l0,0.5l-0.7-0.2l-0.3,0.5l-1.3,0.1l-0.4-0.2l-0.6,0.2l-0.7,0.2
						l-1.1,0.1l-0.7-0.4l-0.3-0.1l-1-0.3l-0.5-0.4c0,0,1.5-0.3,2.1-0.2c0.5,0.1-0.1-0.6-2.2-0.4l0.6-0.4l-0.7-0.4l0-0.4l0.4-0.5
						l1-0.1l0.4-0.3l0.2,0.4h0.7l0.6,0.4l0.2-0.2l0.5-0.1l0.3,0.4l0.4,0.4v-1V107h0.5l0.1-0.4l1,0.1l0,0.5l-0.1,0.4l-0.4,0.1
						l0.2,0.4L199.8,108.9z"/>
					<path class="st5" d="M188.5,106.3v0.4H188l-0.3-0.2c0,0-0.4,0.4,0.4,0.7c0.8,0.3,0.6,0.3,0.9,0.6c0.2,0.2,0.3,0.6,0.6,0.3
						c0.3-0.2,0.4-0.4,0.8-0.4c0.4,0,0.4-0.5,0.1-0.8c-0.2-0.2-0.6-0.6-0.4-0.8c0.1-0.2-0.1-0.9-0.4-0.6c-0.3,0.2-0.7,0.4-1,0.2
						c-0.3-0.2-0.6,0.1-0.6,0.4C188.1,106.3,188.5,106.3,188.5,106.3z"/>
					<path class="st5" d="M192.2,109.1c0,0,0.5-0.2,0.4-0.4c-0.1-0.2-0.3-0.5-0.3-0.5L192,108l-0.2-0.5h-0.4l0.3-0.6
						c0,0,0.2-0.4,0.3-0.4c0.1,0.1,0.6,0,0.6,0l0.3-0.6l0.5-0.4c0,0-1.6-0.4-2.1-0.1c-0.5,0.2-0.6,0.4-0.5,0.8
						c0.1,0.4,0.3,0.7,0.3,0.7l-0.2,0.6l-0.4,0.2l-0.4,0.2l0.2,0.5l-0.2,0.3l0.5,0.3l0.7,0.1l0.1,0.3l0.4-0.3L192.2,109.1z"/>
					<path class="st5" d="M212.6,118.2l-0.7,0.1h-0.4h-0.6l-0.4,0.4l0.1,0.2l0.4,0.1l0.4-0.1c0,0,0.7-0.1,0.9,0
						c0.1,0.1,0.2,0.1,0.5,0.3c0.3,0.2,0.5,0.4,0.7,0.7c0.2,0.3,0.6,0.6,0.9,0.6c0.4,0,0.7,0,0.9,0.2c0.2,0.2,0.4,0.2,0.6,0.2
						c0.2,0-1.1-0.8-1.3-1.2c-0.3-0.5,1.4,0.1,1.9,0.6c0.5,0.5,0.1-0.8,0.1-0.8l-0.7-1l-0.5-0.4l0.2-0.6l0.5,0.2
						c0,0,0.3,0.3,0.5,0.7c0.2,0.4,0.7,0.2,0.8-0.1c0.1-0.3-0.3-0.5,0.3-0.8c0.6-0.3,0.7-0.6,0.2-0.9c-0.5-0.2-1.5-0.1-1.7-0.4
						c-0.2-0.3-1.4-0.5-1.1-0.6c0.2-0.1,0.7,0,0.5-0.4c-0.2-0.4-0.6-0.8-0.9-1c-0.3-0.1-0.9-0.3-0.9-0.3l-0.6-0.7h-0.8l-0.4-0.3
						l-0.4-0.6H211l-0.3,0.2l-0.4,0.1l-0.7-0.4c0,0-0.1-0.1-0.3-0.5c-0.1-0.4-0.8-0.6-1-0.3c-0.2,0.3-0.9,0.4-0.9,0.6
						c0,0.2-0.2,0.5,0.1,1.1c0.4,0.5,0.6,0.5,0.7,0.9c0.1,0.4,0.5,0.7,0.9,0.6c0.4-0.1,0.9,0,1,0c0.1,0.1,0.2-0.4,0.7-0.1
						c0.5,0.3,0.9,0.8,0.9,0.8l-0.6,0.1l0.4,0.1l0.5,0.1l0.6,0.4c0,0,0.4,0.1,0.1,0.6c-0.3,0.5-0.7,0.6-0.7,0.6L212.6,118.2z"/>
					<path class="st5" d="M328.5,115.2l-2.4-0.5h-1c0,0,0.1,0.8-0.4,0.9c-0.5,0.2-1.2-0.5-1.3-0.8c-0.1-0.3-0.6-0.5-1.5-0.2
						c-0.9,0.3-2.9,0.6-2.9,0c0-0.6,0-1.2-0.9-1.1c-0.9,0.1-2.6,0.9-2.9,0.7c-0.3-0.3-0.8-1.7-1.3-1.8c-0.5-0.1-1.9-0.3-2.8-0.1
						c-0.9,0.2-1.8,0.9-2.1,1c-0.3,0.1-0.8,0.2-1.1-0.3c-0.4-0.5-1.3-0.3-1.6,0.4c-0.3,0.7-1.9,0.5-1.8-0.1c0.1-0.6,0.4-1.2,0.1-1.7
						c-0.3-0.5-1.2-0.7-1.8-0.6c-0.6,0.1-0.4,0.9-1.4,0.9c-1,0-2.6-0.4-3.4-0.6c-0.8-0.2-1.5,0.9-1.7,0.2c-0.2-0.7,0-1,0.5-1.7
						c0.5-0.7-1.8-2.2-2.3-2.4c-0.5-0.2-1.1-0.2-1.5,0.1c-0.4,0.3-1,0.7-2.1,0.7c-1,0-2.4,0.2-2.5,0.7c-0.1,0.5-0.4,0-1.9,0.5
						c-1.5,0.5-3,0.3-3,1.1c0,0.9-0.3,1.3-1.2,1.3c-0.9,0,0.2,1.2,0.2,1.2s-1.6-0.3-2.3-0.5c-0.7-0.2-0.9-0.6-1.7,0.4
						c-0.8,0.9-1.9,0.9-2.6,0.7c-0.8-0.2-1.5,0.3-0.5,1.9c1,1.6-2.4-1.1-4-1.3c-1.6-0.2,0.9,1.1,0.3,1.5c-0.6,0.4-2.9-0.9-3.4-0.5
						c-0.5,0.4-2.6,1.7-3.4,1.9c-0.8,0.2-0.5-0.8,0-0.8c0.5,0-0.4-1.1-1.3-0.5c-0.9,0.7,0,1.3,0.2,1.6c0.2,0.3-0.9-0.3-1.1,0.5
						c-0.3,0.8,0,1.7-0.4,1.8c-0.4,0.1-1.5-0.5-1.5-0.5l-0.7,0.4l-1.7-2.5c0,0,5.3,1.6,4.1-0.8c-1.2-2.4-3.5-1.6-4.4-1.7
						c-0.9-0.1-1.5-0.9-2.1-1c-0.6-0.1-1.4,0.5-1.4,0.5l-2.5,1.4l-1.1-0.1l-0.5,0.7l-0.5,0.9l-1.1,0.8c0,0-0.5,0.3-0.5,0.9
						c-0.1,0.6-0.2,0.8-0.6,1c-0.4,0.2-0.8,0.8-0.8,0.8s-0.7-0.4-0.9,0.1c-0.3,0.4-0.6,0.6-0.6,0.8c0,0.2-0.2,0.7-0.2,1.1
						c0,0.4,0,0.8,0.3,1.3c0.3,0.4,1.1,0.7,1.4,0.6c0.3-0.1,0.9-1.3,0.9-0.9c0.1,0.4,0.3,1.3,0.3,1.3s0.4,0.3,0.7,0.7
						c0.3,0.4,0,0.8-0.1,1.1c-0.1,0.3,0.9,0,1-0.3c0.1-0.3,1-0.6,1.1-2c0.1-1.4,0.9-0.6,1.1-0.6c0.2,0-0.2-1.1-0.4-1.4
						c-0.3-0.4-0.3-1.5,0.4-1.8c0.8-0.3,1.8-3,2.5-2c0.8,0.9-0.2,1.3-1.1,2.1c-0.9,0.8-0.5,1.2-0.3,1.6c0.2,0.4,0.1,0.6,0.4,0.9
						c0.3,0.3,0.3,0.3,1.1,0.1c0.8-0.2,1.5-0.9,1.9-0.6c0.4,0.3,0.4,0.8-0.1,0.8c-0.5,0-1.2,0.1-1.5,0.4c-0.3,0.3-0.7-0.1-0.4,0.8
						c0.3,0.8-0.1,0.8-0.6,0.4c-0.5-0.4-0.9,0.4-0.7,0.9c0.2,0.5,0.1,0.8-0.5,0.9c-0.6,0.1-0.4,0.6-0.8,0.4
						c-0.4-0.2-0.8-0.1-1.3,0.1c-0.5,0.3-0.8,0.6-1.1,0.3c-0.3-0.3-0.6-0.3-0.8-0.2c-0.2,0.1-0.6,0.3-1,0.1c-0.4-0.1-0.3-1-0.1-1.1
						c0.2-0.1,0.2-0.8,0.2-0.9c0-0.2-0.4-0.9-1-0.2c-0.6,0.8-0.2,1.3-0.2,2c0,0.7-0.2,0.4-0.8,0.5c-0.6,0.1-0.9,0.2-0.9,0.7
						c0,0.5,0.2,0.8-0.2,0.9c-0.4,0.1-0.6,0.3-0.8,0.5c-0.2,0.3,0,0.3-0.6,0.6c-0.6,0.4-1.1,0.4-1.1,0.4L241,131l-0.8,0.5l0.9,0.8
						c0,0,1.5,1.9,0.6,2.3c-0.9,0.4-0.8,0.3-2.1-0.1c-1.3-0.4-0.8,0.2-1.1,0.7c-0.4,0.5-0.5,2.1-0.5,2.1l0.8,1.8l1.1,0.3l0.7-0.2
						l1.2-0.2l0.4-0.6l0.4-1.3c0,0,0.9-0.8,1.3-0.9c0.4-0.1-0.3-1.6,1.4-1.1c1.7,0.5,0.7-1.4,1.5-0.9c0.8,0.5,0.6,0.9,0.6,0.9
						l1.4,1.1l0.6,0.4l0.4,0.4c0,0,0.2,0.8,0,1.3c-0.2,0.5,0.7-0.4,0.7-0.4l0.3-0.6l-0.2-0.6l0.7,0.5l0.2-0.4l-0.7-0.7l-0.7-0.3
						l-1.1-0.9l-0.6-0.9l0.1-0.6l0.9,0.5l1.9,1.3l0.6,1.1l0.9,2l0.3,0.9l0.9-0.3l-0.3-1.1V137l1.6-0.3l-0.2,1l0.6,1l0.9,0.4l0.4-0.7
						l0.6,0.4l0.9,0.5l1,0.3l0.4,0.2l-0.3,1.1l-0.4,1.1l-0.7,0.8l-1.3-0.3l-0.8,0.6l-1.4-0.6l-0.4,0.1l-0.4-0.4l-0.8-0.2
						c0,0-0.8-0.4-1.3,0.3c-0.5,0.6-0.3,1.1-0.3,1.1s-0.8-0.6-1.3-0.6c-0.4-0.1-0.8-0.4-0.8-0.8c-0.1-0.3-1.1-0.4-2-0.6
						c-0.9-0.2-0.4-0.9-0.1-1.1c0.3-0.2,0.4-1.2-0.1-1.3c-0.5-0.1-1.2,0.1-2.1,0.2c-0.9,0.1-3.2,0.5-3.7,0.9c-0.6,0.4-2.3,0.3-2-0.2
						c0.3-0.5-1,2-1.8,1.6c-0.8-0.4-0.3,1.4-0.3,2.1c0.1,0.7-1.3,0.8-1.7,1.1c-0.4,0.3-1.9,2.5-1.8,4.5c0.1,2.1,0.7,2.5-0.1,3.8
						c-0.8,1.4,0.3,1.1-0.1,1.7c-0.4,0.6,2.1,0.9,2.1,2.4c0,1.5,1.4,0.7,2.4,1.8c1,1.1,2-0.5,2.7,0c0.8,0.5,2.6-2.3,3.7,0
						c1,2.3,2.8-0.6,2,3.2c0,0,1.4,1.8,1.6,4.1c0.2,2.3,1.2,1.7,0.6,2.6c-0.6,0.9-1.6,1.1-0.3,4.9c1.3,3.7,0.9,1.2,0.8,3.2
						c-0.1,2,2,3.5,1.6,4.5c-0.4,1.1,1.1,1.6,3.1,0.7c2-0.9,3.8-2.3,3.8-5.5l1.4-0.7l-0.2-2.8l1.5-1.3c0,0,2.2-1,0.8-4.5
						c0,0-0.8-3.2,2-6.4c0,0,3.8-3.5,3.5-6.4l-2.6,0.8l-0.5,0.1l-0.4-0.9l-0.4-0.6l-1.6-1.3l-0.8-2.2l-0.6-0.9l-0.2-1.2l-0.6-0.7
						l-0.3-2.1l0.6-0.7l0.9,2.2c0,0,0.6,0.9,0.6,1.6c-0.1,0.6,1,1.3,1.2,2.2c0.2,0.9,0.6,3.5,2.5,2.9l2.5-1.2c0,0,0.8-1.2,1.5-1
						c0.7,0.2,0.9-1.2,1.3-1.2c0.4,0,0.4-1.4,0.4-1.4l0.6-1.1l-1.2-0.6l-0.6-1.2l-1.1,0.9l-0.9,0.3l-1.1-1.1l-0.8-1.6l1-1.1l1.1,1.8
						l0.9,0.4l1-0.1l0.6,0.6c0,0,1.2,0.6,2.4,0.5c1.2-0.1,2.6,0.4,2.8,1.3c0.1,0.9,2,2,2,2l0.6,3.7c0,0,0.7,4.1,2,3.2
						c1.3-0.9,0.8,0.2,1.1,1c0.3,0.8,1.4,0.2,0.7-1.6c-0.7-1.8-0.8-3.2-0.4-4c0.4-0.8,1.6-0.7,3.5-3c1.9-2.3,3,1.4,3,2.5
						c0,1,2.1,1.3,2.1,4.3c0,3,1.9,3.8,1,4c-0.9,0.2-2.8-2.1-3-1.2c-0.2,0.9,2.4,2,2.5,2.9c0.1,0.9,2.9,3,2.9,3l0.5-1.6l-0.6-0.9
						l-0.9-0.8l0.3-2.1l-1.1-1.5l-0.4-0.7l-0.7-1.4l0.3-1.5c0,0,0.9,0.3,1.2,0.3c0.3,0,0.9,1.4,0.9,1.4l-0.2,0.7l0.8-0.3l0.6-1.2
						l0.8-0.8c0,0,0.4-1.3-1.4-3.3c-1.8-2,1.5-1.6,1.8-1.6c0.3-0.1,2.1-0.7,2.1-0.7s3.2-0.5,3.8-5.5c0,0-0.2-2.6-0.7-2.5
						c-0.5,0.1,0.4-1.5,0.9-1.5s0-1.3,0.6-1.3c0.6,0,2,0.6,2,1.2c0,0.6,0,0.3-0.4,1.3c-0.4,1,1.7,0.1,1.6-0.4
						c-0.1-0.5-0.9-2.8,0.1-3.9c1-1.1,1.5-1.1,2-0.9c0.5,0.2,1.9-4.1,3.2-5.5c1.3-1.5-0.1,2.6-0.1,3.3c0,0.8,1.2,0.2,1.6-0.8
						c0.4-1-0.3-3-0.3-3l-0.5-1.6l-0.7,0.6l-1.2-0.8l-0.9,0.4c0,0-0.1-1.3,1.3-2.3c1.4-1.1,4.5-2.4,6-1.9l0.4,0.4l1.9-0.6l-0.4-0.9
						l0.4-0.9l1.6-0.2l1.2-0.1l0.5,0.4l-2.5,2.4c0,0-1.6,1.6-0.8,4.8l0.3,0.9l1.1-1.5l0.4-0.4v-0.5l0.8-0.1l0.2-0.9l0.3-0.5l0.2-1.2
						l0.3-0.7l0.6-0.8c0,0,0-0.5,1-0.3c1,0.3,1.5,0.4,1.5,0.4l1-1l1.4-0.6l0.7-0.2h0.9c0,0,0.4-0.5,0.1-1.4l0.5-0.9L328.5,115.2z"/>
					<polygon class="st5" points="297.7,163.3 297.9,164 298.5,163.6 298.9,161.9 299.6,161.2 299.9,160.6 299.7,159.6 299.7,158.6 
						300.1,158 299.6,157.2 299.6,156.2 299.1,157.4 298.2,158.3 297,158.6 296.5,159.8 295.6,160.3 295,160.6 295.2,162 
						295.9,163.1 296.7,163.3 297.4,163.2 					"/>
					<path class="st5" d="M307.6,163.7c0,0,3,1.4,1.8,2c-1.2,0.5-0.5,1.1,0.1,1.1c0.6,0,1.5-0.8,1.7-0.2c0.3,0.6,1.2,0.2,1.6,0
						c0.4-0.2,0.1-0.7,0.9,0.1c0.8,0.8,2.7,1.1,2.7,1.1s-3.1-2.1-3.1-2.5c0-0.3,0.3-0.7,0-1.1c-0.3-0.4-0.9-0.4-1.5-0.8
						c-0.6-0.4-1.3-0.9-1.4-1.1c-0.1-0.3-0.6-0.4-1-0.3c-0.4,0.1-1.2,0.3-1.4,0.4C307.7,162.8,307.6,163.7,307.6,163.7z"/>
					<path class="st5" d="M310.4,171.8c0,0-0.1,0-0.2-0.1c-0.3-0.2-1-0.6-1.1-0.8c-0.2-0.4-1.4-0.7-1.4-0.7l0.9-1.4
						c0,0-2.1-1.4-2.9-0.8c-0.8,0.6-0.3,1.6-0.7,2c-0.4,0.4-0.7-0.1-1.4-0.1c-0.8-0.1-1.8,1.1-2,1.6c-0.2,0.5-1.2,1.6-2.1,1.6
						c-0.9,0-2.1,1.2-2.1,2.3c0,1.1,0.9,2.9,0.8,4c-0.1,1.1,1,1.6,0.2,2.1c-0.8,0.5-0.1,1.4,1.8,0.1c1.9-1.3,2.3-1.1,3.2-1
						c0.9,0.1,2.4-0.8,2.9,0c0.5,0.8,0.8,0.7,1.8,1.1c0.9,0.4,1.4,0.1,1.4,0.9c0,0.8,1.5,0.8,1.8,1.4c0.3,0.7,1.3,1.2,1.3,1.6
						c0,0.4,1.6-0.4,1.9-1.1c0.3-0.7,1.1-1.6,1.2-2.3c0.1-0.7,0.9-3,1.2-3.5c0.3-0.4,0.3-1.7-0.1-2.4c-0.4-0.7-2.4-1.6-2.3-2.3
						c0.1-0.6-0.7-1.6-1-2c-0.3-0.4-1.2-1.5-1-2c0.2-0.5-1-0.9-1-1.5c0-0.6-0.4-1.2-0.4-1.2S309.9,167.4,310.4,171.8z"/>
					<polygon class="st5" points="294.6,164.9 295.5,165.2 296.9,165 297.7,165.5 297.9,165.9 299.7,166.1 300.5,165.9 301.3,166.3 
						303,166.4 302.6,167 301,167.3 299,166.9 297.8,166.9 297,166.6 296,166 294.8,166.2 293.6,165.8 					"/>
					<path class="st5" d="M310.4,135.2l-0.1-0.8l0.8,0.6c0,0,1.1,0.6,1,1.1c-0.1,0.4-0.9,0.4-0.9,0.9c0,0.6-1.4-0.7-1.3,0
						c0.2,0.7,0.4,1.4,0.2,2c-0.2,0.6-0.6,3.2-1.2,3.2c-0.6,0-2.5-0.1-2.7,0.5c-0.3,0.6-1,1.2-1,1.5c0,0.3-0.8-1.8-0.3-2.2
						c0.6-0.4,1-0.8,1.3-0.8c0.3,0,1.6-0.6,1.6-0.6l0.3-1.9c0,0,0.1,0.2,0.8,0c0.7-0.2,0.8-0.9,0.8-1.3c-0.1-0.4,0-0.8-0.1-1.2
						c-0.1-0.4,0.1-0.9,0.3-0.9C310.2,135.4,310.4,135.2,310.4,135.2z"/>
					<path class="st5" d="M215,109.4l2.9,1.2l1.7,2.4l1.8,1.8l-0.5,1.4l0.1,1.5l-1.2,0.9l2.3,3c0,0,1.1,0.9,1.4,0.9
						c0.4,0,1.7-1.2,1.7-1.5c0-0.3,1-2.5,1-2.5l3.3-1.8l2.2-0.4l1.4-0.8l0.7-1.4l-0.8-1.3l1.3-1.9l1.2-0.6l0.2-3.1l0.7-1.1l0.5-1.1
						c0,0-2.4,0.2-2.9,0.3c-0.5,0.1-2.3,0.9-2.6,0.1c-0.4-0.8-0.4-1.7-1.1-1.7c-0.7,0-2.4,0-2.8,0c-0.4,0-1.1,0.1-1.8,0.1
						c-0.6,0-0.2-0.7-1.2-0.5c-1.1,0.2-1.1,0.1-1.9,0.7c-0.8,0.6-1.1,0.5-1.8,0.7c-0.7,0.2-1.1,0-1.8-0.1c-0.6-0.1,0.1-1.2-1.8,0.3
						c-1.8,1.5-2.5,1.1-3,1.8c-0.5,0.7-2.8,1-2.8,1s-0.7-0.2-0.4,0.7c0.4,0.9,0.8,2.2,1.6,2.3C213.2,110.6,215,109.4,215,109.4z"/>
				</g>
			</g>
			<rect x="225.5" y="231.8" class="st10" width="33.6" height="9.9"/>
			<path class="st20" d="M254.4,231.8c0,0.8-0.1,1.5-0.4,2.3c-0.8,2.5-2.9,4.9-5.6,5.3c-3.8,0.6-7.9,0-11.7,0c-3.7,0-7.5,0-11.2,0
				v2.4h33.6v-9.9H254.4z"/>
			<path class="st21" d="M242.5,88.1c-3,0-6,0.2-8.8,0.7c13.2,4,25.2,11.7,33.7,22.8c11.7,15.3,18.2,39.9,5.5,56.6
				c-12.4,16.2-36.5,20.6-55.1,13.5c-10.5-4-18.5-12.5-24.3-22c-2.8-4.5-4.9-9.2-5.9-14.4c-0.4-2-0.6-4.4-1.1-6.7
				c-0.2,1.9-0.3,3.8-0.3,5.8c0,31.1,25.2,56.4,56.4,56.4c31.1,0,56.4-25.2,56.4-56.4C298.9,113.3,273.6,88.1,242.5,88.1z"/>
		</g>
		<g>
			<path class="st22" d="M251.7,128.2c0,1.2-0.9,2.1-2.1,2.1h-6.8c-1.2,0-2.1-0.9-2.1-2.1v-0.7c0-1.2,0.9-2.1,2.1-2.1h6.8
				c1.2,0,2.1,0.9,2.1,2.1V128.2z"/>
			<path class="st3" d="M246,72.4c-10.2,0-18.4,8.4-18.5,18.8c0,5.3,1.7,8.4,3.7,11.3c5.4,8,5.2,14.2,5,15.8c0,0.1-0.1,0.3-0.1,0.4
				c0,2,3.7,3.6,9.8,3.6c6.1,0,9.5-1.6,9.5-3.6c0.3-7.8,2.2-12.4,3.8-14.6c2.1-2.9,5.1-8.6,5.1-13C264.4,80.8,256.1,72.4,246,72.4z"
				/>
			<path class="st4" d="M246,72.4c-1.7,0-3.4,0.2-4.9,0.7c2.5,0.2,4.9,0.9,7,2c4.2,2.3,7,6.1,8.4,10.6c1.4,4.5,0.8,9.5-0.3,14
				c-1.1,4.3-3.2,9.5-7.4,11.6c-2.2,1.1-4.7,1.2-7.1,1.2c-2,0-4-0.1-5.9-0.3c0.7,3,0.6,5.2,0.5,6c0,0.1-0.1,0.3-0.1,0.4
				c0,2,3.7,3.6,9.8,3.6c6.1,0,9.5-1.6,9.5-3.6c0.3-7.8,2.2-12.4,3.8-14.6c2.1-2.9,5.1-8.6,5.1-13C264.4,80.8,256.1,72.4,246,72.4z"
				/>
			<g>
				<line class="st23" x1="244.4" y1="117.2" x2="240.7" y2="96.2"/>
				<line class="st23" x1="247.6" y1="117.2" x2="251.3" y2="96.2"/>
			</g>
			<path class="st10" d="M255.5,115.4h-19c-1,0-1.8,0.8-1.8,1.8v0.8c0,0.7,0.4,1.2,0.9,1.5c-0.2,0.3-0.3,0.6-0.3,1v0.8
				c0,1,0.7,1.7,1.6,1.8c-0.2,0.3-0.3,0.7-0.3,1.1v0.8c0,1,0.7,1.8,1.5,1.8h0.8v0.2c0,1,0.5,1.8,1.1,1.8h11.7c0.6,0,1.1-0.8,1.1-1.8
				v-0.2h1.1c0.8,0,1.5-0.8,1.5-1.8v-0.8c0-0.4-0.1-0.8-0.3-1.1c0.9-0.1,1.6-0.9,1.6-1.8v-0.8c0-0.4-0.1-0.7-0.3-1
				c0.5-0.3,0.9-0.9,0.9-1.5v-0.8C257.3,116.2,256.5,115.4,255.5,115.4z"/>
			<path class="st20" d="M255.5,115.4h-2.9c0.6,1.2,0.8,2.6,0.6,4c-0.2,1.9-0.8,4.3-2.4,5.5c-1.7,1.3-4.1,1-6.1,1h-7.9
				c0.3,0.5,0.7,0.9,1.3,0.9h0.8v0.2c0,1,0.5,1.8,1.1,1.8h11.7c0.6,0,1.1-0.8,1.1-1.8v-0.2h1.1c0.8,0,1.5-0.8,1.5-1.8v-0.8
				c0-0.4-0.1-0.8-0.3-1.1c0.9-0.1,1.6-0.9,1.6-1.8v-0.8c0-0.4-0.1-0.7-0.3-1c0.5-0.3,0.9-0.9,0.9-1.5v-0.8
				C257.3,116.2,256.5,115.4,255.5,115.4z"/>
		</g>
		<g>
			<path class="st3" d="M228,343.1c0,19.4-18.6,31.7-41.7,31.7c-23.2,0-41.9-15.7-41.9-35.2c0-19.4,18.8-35.2,41.9-35.2
				c11.6,0-3.3,22.8,13.7,25.8C216.8,333.3,228,333.4,228,343.1z"/>
			<g>
				<path class="st5" d="M219.6,345.3c1.5,3.6-0.9,8-5.3,9.8c-4.4,1.8-9.1,0.3-10.6-3.3c-1.5-3.6,0.9-8,5.3-9.8
					C213.3,340.2,218.1,341.7,219.6,345.3z"/>
				<path class="st24" d="M219.6,345.3c-0.1-0.3-0.2-0.5-0.4-0.7c-0.7,3.2-2.3,6-5.8,7.6c-2.6,1.2-5.8,1.5-8.5,0.3
					c-0.5-0.2-0.9-0.5-1.3-0.8c0,0,0,0.1,0.1,0.1c1.5,3.6,6.2,5.1,10.6,3.3C218.7,353.3,221.1,348.9,219.6,345.3z"/>
			</g>
			<g>
				<path class="st6" d="M174.7,317.3c1.5,3.1-0.3,7-4,8.8c-3.7,1.8-7.9,0.8-9.4-2.3c-1.5-3.1,0.3-7,4-8.8
					C169,313.3,173.2,314.3,174.7,317.3z"/>
				<path class="st25" d="M172.4,324c-1.9,1.2-4.9,2.1-7.1,1.2c-2.9-1.1-3.2-4.5-1.6-6.9c0.8-1.3,2-2.3,3.2-3.2
					c0.4-0.3,0.9-0.6,1.3-0.9c-1,0.1-2,0.4-3,0.9c-3.7,1.8-5.5,5.8-4,8.8c1.5,3.1,5.7,4.1,9.4,2.3c2.3-1.1,3.9-3.1,4.4-5.1
					C174.4,322.2,173.6,323.3,172.4,324z"/>
			</g>
			<g>
				<path class="st8" d="M157.3,330.8c3.4-0.3,6.5,2.7,6.9,6.8c0.4,4.1-2,7.7-5.4,8c-3.4,0.3-6.5-2.7-6.9-6.8
					C151.4,334.8,153.9,331.2,157.3,330.8z"/>
				<path class="st26" d="M158.6,343.8c-4.8-2.2-4.4-9.2-1.6-12.9c-3.3,0.5-5.6,4-5.2,8c0.4,4.1,3.5,7.2,6.9,6.8
					c1.2-0.1,2.2-0.6,3.1-1.4C160.7,344.4,159.6,344.3,158.6,343.8z"/>
			</g>
			<g>
				<path class="st1" d="M161.7,351.6c1.8-2.9,6.1-3.4,9.6-1.1c3.5,2.2,4.8,6.4,3,9.2c-1.8,2.9-6.1,3.4-9.6,1.1
					C161.2,358.6,159.9,354.5,161.7,351.6z"/>
				<path class="st27" d="M170.1,361.4c-3-0.4-5.4-2-6.6-4.8c-0.9-2-1.1-4.4-0.3-6.5c-0.6,0.4-1.1,0.9-1.5,1.5c-1.8,2.9-0.5,7,3,9.2
					c2.5,1.6,5.5,1.8,7.7,0.6C171.6,361.5,170.9,361.5,170.1,361.4z"/>
			</g>
			<g>
				<path class="st10" d="M181.1,361.4c-0.4-3.4,2.5-6.5,6.6-7.1c4.1-0.5,7.8,1.8,8.2,5.2c0.4,3.4-2.5,6.5-6.6,7.1
					C185.2,367.1,181.5,364.7,181.1,361.4z"/>
				<path class="st28" d="M195.6,358.3c-0.1,0.3-0.3,0.5-0.4,0.8c-1,2-2.3,3.9-4.5,4.6c-2.3,0.7-5,0.7-7.2-0.3
					c-0.9-0.4-1.8-1-2.4-1.9c0.6,3.2,4.2,5.4,8.1,4.9c4.1-0.5,7.1-3.7,6.6-7.1C195.9,359.1,195.8,358.7,195.6,358.3z"/>
			</g>
			<path class="st29" d="M224,335.7c-1.9,3.6-4.1,7-6.8,10.1c-4,4.7-9,8.8-14.7,11.3c-6.8,3-15,5-22.4,3.7
				c-6.9-1.3-13.5-5.5-17.3-11.4c-3.5-5.3-4.6-11.8-3.8-18.1c0.5-3.5,1.4-7,3.3-10c1.8-3,4.3-5.4,7-7.6c3.1-2.5,6.3-4.9,9.6-7.2
				c0.9-0.7,1.9-1.3,2.8-1.9c-21,1.9-37.3,16.8-37.3,34.9c0,19.4,18.8,35.2,41.9,35.2c23.2,0,41.7-12.3,41.7-31.7
				C228,339.5,226.6,337.3,224,335.7z"/>
		</g>
		<g>
			<g>
				<g>
					<rect x="247.8" y="303.7" class="st8" width="6.8" height="53.7"/>
					<path class="st9" d="M253.2,357.5c0.1-4.4,0-8.8,0-13.2c0-5.3-0.4-10.6-0.7-15.9c-0.2-2.7-0.4-5.4-0.6-8.1
						c-0.1-2.4-0.3-4.7-0.8-7.1c-0.3-1.7-0.4-3.6-1.3-5.1c-0.5-0.8-1.2-1.4-2.1-1.8v-2.6h6.8v53.7H253.2z"/>
					<polygon class="st30" points="247.8,303.7 251.2,298 254.6,303.7 					"/>
					<path class="st31" d="M253,303.7c-0.2-1.9-1-3.9-2.5-4.5l0.7-1.2l3.4,5.7H253z"/>
					<polygon class="st8" points="250.2,299.8 251.2,298 252.3,299.8 					"/>
					<path class="st9" d="M251.7,299.8c0-0.2-0.1-0.5-0.1-0.7c-0.1-0.4-0.3-0.5-0.6-0.7l0.2-0.4l1,1.7H251.7z"/>
					<rect x="247.8" y="357.5" class="st10" width="6.8" height="1.8"/>
					<path class="st32" d="M253,359.3c0-0.1,0-0.2,0-0.3c-0.1-0.8-0.9-0.9-1.6-0.9c-1.2,0-2.4,0.1-3.6,0.1v-0.7h6.8v1.8H253z"/>
				</g>
				<g>
					<rect x="254.6" y="303.7" class="st6" width="6.8" height="53.7"/>
					<path class="st33" d="M260,357.5c0.1-4.4,0-8.8,0-13.2c0-5.3-0.4-10.6-0.7-15.9c-0.2-2.7-0.4-5.4-0.6-8.1
						c-0.1-2.4-0.3-4.7-0.8-7.1c-0.3-1.7-0.4-3.6-1.3-5.1c-0.5-0.8-1.2-1.4-2.1-1.8v-2.6h6.8v53.7H260z"/>
					<polygon class="st30" points="254.6,303.7 258.1,298 261.5,303.7 					"/>
					<path class="st31" d="M259.9,303.7c-0.2-1.9-1-3.9-2.5-4.5l0.7-1.2l3.4,5.7H259.9z"/>
					<polygon class="st6" points="257,299.8 258.1,298 259.1,299.8 					"/>
					<path class="st34" d="M258.6,299.8c0-0.2-0.1-0.5-0.1-0.7c-0.1-0.4-0.3-0.5-0.6-0.7l0.2-0.4l1,1.7H258.6z"/>
					<rect x="254.6" y="357.5" class="st10" width="6.8" height="1.8"/>
					<path class="st32" d="M259.8,359.3c0-0.1,0-0.2,0-0.3c-0.1-0.8-0.9-0.9-1.6-0.9c-1.2,0-2.4,0.1-3.6,0.1v-0.7h6.8v1.8H259.8z"/>
				</g>
				<g>
					<rect x="261.4" y="303.7" class="st1" width="6.8" height="53.7"/>
					<path class="st35" d="M266.8,357.5c0.1-4.4,0-8.8,0-13.2c0-5.3-0.4-10.6-0.7-15.9c-0.2-2.7-0.4-5.4-0.6-8.1
						c-0.1-2.4-0.3-4.7-0.8-7.1c-0.3-1.7-0.4-3.6-1.3-5.1c-0.5-0.8-1.2-1.4-2.1-1.8v-2.6h6.8v53.7H266.8z"/>
					<polygon class="st30" points="261.4,303.7 264.8,298 268.2,303.7 					"/>
					<path class="st31" d="M266.6,303.7c-0.2-1.9-1-3.9-2.5-4.5l0.7-1.2l3.4,5.7H266.6z"/>
					<polygon class="st1" points="263.8,299.8 264.8,298 265.9,299.8 					"/>
					<path class="st35" d="M265.3,299.8c0-0.2-0.1-0.5-0.1-0.7c-0.1-0.4-0.3-0.5-0.6-0.7l0.2-0.4l1,1.7H265.3z"/>
					<rect x="261.4" y="357.5" class="st10" width="6.8" height="1.8"/>
					<path class="st32" d="M266.6,359.3c0-0.1,0-0.2,0-0.3c-0.1-0.8-0.9-0.9-1.6-0.9c-1.2,0-2.4,0.1-3.6,0.1v-0.7h6.8v1.8H266.6z"/>
				</g>
				<g>
					<rect x="268.2" y="303.7" class="st10" width="6.8" height="53.7"/>
					<path class="st20" d="M273.6,357.5c0.1-4.4,0-8.8,0-13.2c0-5.3-0.4-10.6-0.7-15.9c-0.2-2.7-0.4-5.4-0.6-8.1
						c-0.1-2.4-0.3-4.7-0.8-7.1c-0.3-1.7-0.4-3.6-1.3-5.1c-0.5-0.8-1.2-1.4-2.1-1.8v-2.6h6.8v53.7H273.6z"/>
					<polygon class="st30" points="268.2,303.7 271.7,298 275.1,303.7 					"/>
					<path class="st31" d="M273.5,303.7c-0.2-1.9-1-3.9-2.5-4.5l0.7-1.2l3.4,5.7H273.5z"/>
					<polygon class="st10" points="270.6,299.8 271.7,298 272.7,299.8 					"/>
					<path class="st20" d="M272.2,299.8c0-0.2-0.1-0.5-0.1-0.7c-0.1-0.4-0.3-0.5-0.6-0.7l0.2-0.4l1,1.7H272.2z"/>
					<rect x="268.2" y="357.5" class="st10" width="6.8" height="1.8"/>
					<path class="st32" d="M273.4,359.3c0-0.1,0-0.2,0-0.3c-0.1-0.8-0.9-0.9-1.6-0.9c-1.2,0-2.4,0.1-3.6,0.1v-0.7h6.8v1.8H273.4z"/>
				</g>
				<g>
					<rect x="275.1" y="303.7" class="st3" width="6.8" height="53.7"/>
					<path class="st36" d="M280.4,357.5c0.1-4.4,0-8.8,0-13.2c0-5.3-0.4-10.6-0.7-15.9c-0.2-2.7-0.4-5.4-0.6-8.1
						c-0.1-2.4-0.3-4.7-0.8-7.1c-0.3-1.7-0.4-3.6-1.3-5.1c-0.5-0.8-1.2-1.4-2.1-1.8v-2.6h6.8v53.7H280.4z"/>
					<polygon class="st30" points="275.1,303.7 278.5,298 281.9,303.7 					"/>
					<path class="st31" d="M280.3,303.7c-0.2-1.9-1-3.9-2.5-4.5l0.7-1.2l3.4,5.7H280.3z"/>
					<polygon class="st3" points="277.5,299.8 278.5,298 279.5,299.8 					"/>
					<path class="st36" d="M279,299.8c0-0.2-0.1-0.5-0.1-0.7c-0.1-0.4-0.3-0.5-0.6-0.7l0.2-0.4l1,1.7H279z"/>
					<rect x="275.1" y="357.5" class="st10" width="6.8" height="1.8"/>
					<path class="st32" d="M280.3,359.3c0-0.1,0-0.2,0-0.3c-0.1-0.8-0.9-0.9-1.6-0.9c-1.2,0-2.4,0.1-3.6,0.1v-0.7h6.8v1.8H280.3z"/>
				</g>
				<g>
					<rect x="281.9" y="303.7" class="st6" width="6.8" height="53.7"/>
					<path class="st33" d="M287.3,357.5c0.1-4.4,0-8.8,0-13.2c0-5.3-0.4-10.6-0.7-15.9c-0.2-2.7-0.4-5.4-0.6-8.1
						c-0.1-2.4-0.3-4.7-0.8-7.1c-0.3-1.7-0.4-3.6-1.3-5.1c-0.5-0.8-1.2-1.4-2.1-1.8v-2.6h6.8v53.7H287.3z"/>
					<polygon class="st30" points="281.9,303.7 285.3,298 288.7,303.7 					"/>
					<path class="st31" d="M287.1,303.7c-0.2-1.9-1-3.9-2.5-4.5l0.7-1.2l3.4,5.7H287.1z"/>
					<polygon class="st6" points="284.3,299.8 285.3,298 286.4,299.8 					"/>
					<path class="st34" d="M285.8,299.8c0-0.2-0.1-0.5-0.1-0.7c-0.1-0.4-0.3-0.5-0.6-0.7l0.2-0.4l1,1.7H285.8z"/>
					<rect x="281.9" y="357.5" class="st10" width="6.8" height="1.8"/>
					<path class="st32" d="M287.1,359.3c0-0.1,0-0.2,0-0.3c-0.1-0.8-0.9-0.9-1.6-0.9c-1.2,0-2.4,0.1-3.6,0.1v-0.7h6.8v1.8H287.1z"/>
				</g>
				<g>
					<rect x="288.7" y="303.7" class="st1" width="6.8" height="53.7"/>
					<path class="st35" d="M294,357.5c0.1-4.4,0-8.8,0-13.2c0-5.3-0.4-10.6-0.7-15.9c-0.2-2.7-0.4-5.4-0.6-8.1
						c-0.1-2.4-0.3-4.7-0.8-7.1c-0.3-1.7-0.4-3.6-1.3-5.1c-0.5-0.8-1.2-1.4-2.1-1.8v-2.6h6.8v53.7H294z"/>
					<polygon class="st30" points="288.7,303.7 292.1,298 295.5,303.7 					"/>
					<path class="st31" d="M293.9,303.7c-0.2-1.9-1-3.9-2.5-4.5l0.7-1.2l3.4,5.7H293.9z"/>
					<polygon class="st1" points="291,299.8 292.1,298 293.1,299.8 					"/>
					<path class="st35" d="M292.6,299.8c0-0.2-0.1-0.5-0.1-0.7c-0.1-0.4-0.3-0.5-0.6-0.7l0.2-0.4l1,1.7H292.6z"/>
					<rect x="288.7" y="357.5" class="st10" width="6.8" height="1.8"/>
					<path class="st32" d="M293.9,359.3c0-0.1,0-0.2,0-0.3c-0.1-0.8-0.9-0.9-1.6-0.9c-1.2,0-2.4,0.1-3.6,0.1v-0.7h6.8v1.8H293.9z"/>
				</g>
				<g>
					<rect x="295.5" y="303.7" class="st10" width="6.8" height="53.7"/>
					<path class="st20" d="M300.9,357.5c0.1-4.4,0-8.8,0-13.2c0-5.3-0.4-10.6-0.7-15.9c-0.2-2.7-0.4-5.4-0.6-8.1
						c-0.1-2.4-0.3-4.7-0.8-7.1c-0.3-1.7-0.4-3.6-1.3-5.1c-0.5-0.8-1.2-1.4-2.1-1.8v-2.6h6.8v53.7H300.9z"/>
					<polygon class="st30" points="295.5,303.7 298.9,298 302.3,303.7 					"/>
					<path class="st31" d="M300.7,303.7c-0.2-1.9-1-3.9-2.5-4.5l0.7-1.2l3.4,5.7H300.7z"/>
					<polygon class="st10" points="297.9,299.8 298.9,298 300,299.8 					"/>
					<path class="st20" d="M299.4,299.8c0-0.2-0.1-0.5-0.1-0.7c-0.1-0.4-0.3-0.5-0.6-0.7l0.2-0.4l1,1.7H299.4z"/>
					<rect x="295.5" y="357.5" class="st10" width="6.8" height="1.8"/>
					<path class="st32" d="M300.7,359.3c0-0.1,0-0.2,0-0.3c-0.1-0.8-0.9-0.9-1.6-0.9c-1.2,0-2.4,0.1-3.6,0.1v-0.7h6.8v1.8H300.7z"/>
				</g>
			</g>
			<path class="st17" d="M240.3,287.4v80.6h69.4v-80.6H240.3z M301.5,321.4h-52.9v-25.9h52.9V321.4z"/>
			<rect x="251.3" y="330.5" class="st30" width="47.5" height="26.3"/>
			<path class="st37" d="M289,330.5c0,3.3-0.2,6.5-1.1,9.6c-1,3.5-3.7,5.7-7.1,6.7c-4,1.2-8.2,1.1-12.4,1.1h-17.1v9h47.5v-26.3H289z
				"/>
			<path class="st38" d="M295,287.4c0,1.4-0.1,2.8-0.1,4.2c0,1.3-0.1,2.6-0.1,3.8h6.7v25.9h-7.4c0,1.3,0,2.5,0,3.8
				c0,4.4,0.2,8.8,0.3,13.2c0,3.5,0,7.5-2.1,10.4c-1.9,2.6-5.5,3.5-8.5,3.9c-4,0.6-8.2,0.6-12.2,0.6c-10.4,0.1-20.8-0.7-31.2-0.5
				v15.4h69.4v-80.6H295z"/>
		</g>
		<g>
			<g>
				<rect x="113.2" y="313.5" class="st6" width="8.5" height="18"/>
				<path class="st10" d="M144.5,289.4c0,14.8-12,26.9-26.9,26.9c-14.8,0-26.9-12-26.9-26.9c0-14.8,12-26.9,26.9-26.9
					C132.5,262.6,144.5,274.6,144.5,289.4z"/>
				<path class="st6" d="M138.6,289.4c0,11.6-9.4,20.9-20.9,20.9c-11.6,0-20.9-9.4-20.9-20.9c0-11.6,9.4-20.9,20.9-20.9
					C129.2,268.5,138.6,277.9,138.6,289.4z"/>
			</g>
			<rect x="112.5" y="319.8" class="st8" width="9.8" height="47.6"/>
		</g>
	</g>
	<path class="st39" d="M164.2,87.9c0.1-0.8,0.2-1.6,0.2-2.5c0-7-5-12.8-11.4-13.3c-1.3-4.1-4.8-7-9-7c-1,0-2,0.2-2.9,0.5
		c-1.7-5.1-6.3-8.8-11.6-8.8c-4.8,0-8.9,2.9-11,7.1c-1.3-0.7-2.7-1.1-4.2-1.1c-3.4,0-6.4,1.9-8.1,4.8c-1.8-1.1-3.9-1.8-6.2-1.8
		c-6.2,0-11.3,5-12.1,11.5c-5,0.4-9,4.9-9.1,10.5H164.2z"/>
	<path class="st39" d="M357.3,103.4c0.1-0.8,0.2-1.6,0.2-2.5c0-7-5-12.8-11.4-13.3c-1.3-4.1-4.8-7-9-7c-1,0-2,0.2-2.9,0.5
		c-1.7-5.1-6.3-8.8-11.6-8.8c-4.8,0-8.9,2.9-11,7.1c-1.3-0.7-2.7-1.1-4.2-1.1c-3.4,0-6.4,1.9-8.1,4.8c-1.8-1.1-3.9-1.8-6.2-1.8
		c-6.2,0-11.3,5-12.1,11.5c-5,0.4-9,4.9-9.1,10.5H357.3z"/>
</g>
</svg>
